<svg width="42" height="41" viewBox="0 0 42 41" fill="none" xmlns="http://www.w3.org/2000/svg">
<path d="M26.8786 38.9978H26.4337C25.8989 38.7678 25.7384 38.3502 25.7392 37.7879C25.7414 35.8511 25.737 33.9136 25.6805 31.9775C25.6553 31.1133 25.3455 30.3137 24.7744 29.6379C24.6912 29.5392 24.6035 29.4436 24.4951 29.3219C24.5924 29.3048 24.6392 29.2952 24.686 29.2893C26.0341 29.1068 27.3651 28.8687 28.6077 28.2708C29.9595 27.6195 31.1278 26.7687 31.8743 25.4268C32.5881 24.1427 32.929 22.7556 33.0679 21.3039C33.2892 18.9933 32.9231 16.8532 31.3314 15.0455C31.2601 14.9646 31.2162 14.794 31.2504 14.6968C31.7228 13.3505 31.6567 12.0093 31.2608 10.6608C30.9934 9.75133 30.8404 9.65045 29.912 9.83886C29.8875 9.84405 29.8644 9.85147 29.8407 9.85741C28.4993 10.2023 27.2826 10.8202 26.1284 11.5687C25.8848 11.7267 25.6664 11.7742 25.3715 11.7C22.4793 10.9686 19.5803 10.9686 16.6865 11.6941C16.3998 11.766 16.1852 11.7223 15.926 11.5828C15.0154 11.0932 14.0958 10.6192 13.157 10.1868C12.5754 9.91897 11.953 9.72982 11.2942 9.81364C11.1843 9.82773 11.026 9.91304 10.9919 10.0035C10.4304 11.4953 10.2254 13.0115 10.7616 14.5566C10.8463 14.7999 10.8099 14.9542 10.6443 15.1426C9.89112 16.0016 9.39348 16.9949 9.12757 18.1076C8.83939 19.3159 8.88098 20.5339 9.02285 21.7497C9.19294 23.2103 9.59922 24.6064 10.4281 25.8377C11.5913 27.5639 13.3315 28.4236 15.282 28.9176C16.0047 29.1008 16.7482 29.1995 17.5303 29.3456C16.8566 30.0095 16.5276 30.8166 16.3724 31.7082C16.3605 31.7787 16.2944 31.8707 16.2305 31.8966C15.1409 32.338 14.0178 32.545 12.8762 32.1526C11.999 31.8514 11.3878 31.2023 10.9273 30.4138C10.4794 29.6453 9.86513 29.0556 9.07038 28.661C8.54154 28.3984 7.98745 28.2374 7.39102 28.3887C7.05381 28.474 6.98697 28.6172 7.19568 28.8805C7.3836 29.1179 7.62945 29.31 7.8545 29.5163C8.19765 29.8308 8.61582 30.0911 8.8743 30.4628C9.28578 31.0547 9.64453 31.6978 9.93197 32.3595C10.4318 33.5085 11.2957 34.1903 12.4796 34.4647C13.5195 34.7058 14.5823 34.751 15.6467 34.6116C15.8502 34.5849 16.0522 34.55 16.3278 34.507C16.3278 35.6234 16.3129 36.6953 16.3337 37.7657C16.3449 38.342 16.1659 38.7715 15.6088 38.9963H15.1639C14.9574 38.9199 14.7509 38.8435 14.5445 38.7671C9.3296 36.8518 5.65299 33.2793 3.48936 28.2218C1.69339 24.0241 1.55375 19.6646 2.89738 15.3006C4.10732 11.3766 6.40168 8.17874 9.70618 5.72639C12.5026 3.65087 15.6333 2.42173 19.1139 2.09535C21.9081 1.83349 24.6429 2.09905 27.2878 3.04038C31.185 4.42752 34.3336 6.8183 36.6814 10.2313C38.233 12.487 39.2729 14.9579 39.7111 17.6677C39.8225 18.3583 39.9042 19.0533 40 19.7462V21.9678C39.9176 22.6762 39.8618 23.3883 39.7475 24.0916C39.3664 26.4267 38.5724 28.6165 37.3387 30.6393C35.9216 32.9626 34.1293 34.9417 31.8921 36.5113C30.3465 37.5958 28.656 38.3836 26.8786 39V38.9978Z" fill="white"/>
</svg>
