<svg width="151" height="20" viewBox="0 0 151 20" fill="none" xmlns="http://www.w3.org/2000/svg">
<path d="M7.05664 0.865234C7.74023 0.865234 8.4043 0.982422 9.04883 1.2168C9.71289 1.45117 10.3477 1.79297 10.9531 2.24219C11.0508 2.33984 11.1582 2.4375 11.2754 2.53516C11.373 2.4375 11.4805 2.33984 11.5977 2.24219C12.2031 1.79297 12.8281 1.45117 13.4727 1.2168C14.1367 0.982422 14.8008 0.865234 15.4648 0.865234C16.1484 0.865234 16.8125 0.982422 17.457 1.2168C18.1211 1.45117 18.7461 1.80273 19.332 2.27148C19.9375 2.7207 20.4648 3.32617 20.9141 4.08789C21.3828 4.84961 21.6172 5.75781 21.6172 6.8125V17.3887C21.5 18.5605 20.8555 19.1953 19.6836 19.293C19.1367 19.293 18.6582 19.1172 18.248 18.7656C17.8574 18.3945 17.6621 17.9355 17.6621 17.3887V7.04688C17.6621 6.57812 17.5742 6.1875 17.3984 5.875C17.2227 5.54297 17.0273 5.28906 16.8125 5.11328C16.5977 4.91797 16.373 4.78125 16.1387 4.70312C15.9043 4.60547 15.6699 4.55664 15.4355 4.55664C15.2012 4.55664 14.9668 4.60547 14.7324 4.70312C14.5176 4.78125 14.3027 4.91797 14.0879 5.11328C13.873 5.28906 13.6777 5.54297 13.502 5.875C13.3262 6.1875 13.2285 6.57812 13.209 7.04688V17.3887C13.0918 18.5605 12.4473 19.1953 11.2754 19.293C10.7285 19.293 10.25 19.1172 9.83984 18.7656C9.44922 18.3945 9.25391 17.9355 9.25391 17.3887V7.04688C9.25391 6.57812 9.16602 6.1875 8.99023 5.875C8.81445 5.54297 8.61914 5.28906 8.4043 5.11328C8.18945 4.91797 7.96484 4.78125 7.73047 4.70312C7.49609 4.60547 7.26172 4.55664 7.02734 4.55664C6.79297 4.55664 6.55859 4.60547 6.32422 4.70312C6.10938 4.78125 5.89453 4.91797 5.67969 5.11328C5.46484 5.28906 5.26953 5.54297 5.09375 5.875C4.91797 6.1875 4.82031 6.57812 4.80078 7.04688V17.3887C4.70312 18.5605 4.06836 19.1953 2.89648 19.293C2.34961 19.293 1.87109 19.1172 1.46094 18.7656C1.07031 18.3945 0.875 17.9355 0.875 17.3887V6.8125C0.914062 5.75781 1.1582 4.84961 1.60742 4.08789C2.05664 3.32617 2.58398 2.7207 3.18945 2.27148C3.79492 1.80273 4.41992 1.45117 5.06445 1.2168C5.72852 0.982422 6.39258 0.865234 7.05664 0.865234ZM31.373 18.9414C29.6543 18.8828 28.3555 18.4824 27.4766 17.7402C26.5977 16.9785 25.9629 16.1289 25.5723 15.1914C25.1816 14.2344 24.9863 13.2676 24.9863 12.291C24.9863 11.2754 25.1719 10.2988 25.543 9.36133C25.9336 8.4043 26.5684 7.55469 27.4473 6.8125C28.3457 6.05078 29.4785 5.66016 30.8457 5.64062H40.3379C41.7051 5.66016 42.8281 6.05078 43.707 6.8125C44.6055 7.55469 45.2402 8.4043 45.6113 9.36133C46.002 10.2988 46.1973 11.2754 46.1973 12.291C46.1973 13.2676 46.002 14.2344 45.6113 15.1914C45.2207 16.1289 44.5859 16.9785 43.707 17.7402C42.8281 18.4824 41.5293 18.8828 39.8105 18.9414H31.373ZM30.7285 9.56641C30.3574 9.56641 30.0352 9.72266 29.7617 10.0352C29.4883 10.3281 29.2832 10.6797 29.1465 11.0898C29.0293 11.4805 28.9707 11.8711 28.9707 12.2617C28.9707 12.6719 29.0293 13.082 29.1465 13.4922C29.2832 13.8828 29.4883 14.2344 29.7617 14.5469C30.0352 14.8398 30.3574 14.9961 30.7285 15.0156H40.4551C40.8262 14.9961 41.1484 14.8398 41.4219 14.5469C41.6953 14.2344 41.8906 13.8828 42.0078 13.4922C42.1445 13.082 42.2129 12.6719 42.2129 12.2617C42.2129 11.8711 42.1445 11.4805 42.0078 11.0898C41.8906 10.6797 41.6953 10.3281 41.4219 10.0352C41.1484 9.72266 40.8262 9.56641 40.4551 9.56641H30.7285ZM54.1953 17.3887C53.1992 16.041 52.2031 14.2734 51.207 12.0859L49.3027 7.98438C49.2051 7.76953 49.1465 7.53516 49.127 7.28125C49.0879 6.73438 49.2539 6.26562 49.625 5.875C49.9961 5.48438 50.4844 5.28906 51.0898 5.28906C51.7539 5.28906 52.2422 5.42578 52.5547 5.69922C52.8867 5.95312 53.1504 6.28516 53.3457 6.69531L54.7227 10.0938C55.0742 10.8945 55.416 11.6562 55.748 12.3789C56.0996 13.082 56.4902 13.7266 56.9199 14.3125C57.3691 14.8984 57.8672 15.2109 58.4141 15.25C58.9414 15.2109 59.4395 14.8984 59.9082 14.3125C60.3184 13.7266 60.6895 13.082 61.0215 12.3789C61.373 11.6562 61.7246 10.8945 62.0762 10.0938L63.4531 6.69531C63.6484 6.28516 63.9023 5.95312 64.2148 5.69922C64.5469 5.42578 65.0449 5.28906 65.709 5.28906C66.3145 5.28906 66.8027 5.48438 67.1738 5.875C67.5449 6.26562 67.7109 6.73438 67.6719 7.28125C67.6523 7.53516 67.5938 7.76953 67.4961 7.98438L65.5918 12.0859C64.5957 14.2734 63.5996 16.041 62.6035 17.3887C61.6465 18.7168 60.25 19.3906 58.4141 19.4102C56.5586 19.3906 55.1523 18.7168 54.1953 17.3887ZM109.83 18.9414C108.111 18.8828 106.812 18.4824 105.934 17.7402C105.055 16.9785 104.42 16.1289 104.029 15.1914C103.639 14.2344 103.443 13.2676 103.443 12.291C103.443 11.2754 103.629 10.2988 104 9.36133C104.391 8.4043 105.025 7.55469 105.904 6.8125C106.803 6.05078 107.936 5.66016 109.303 5.64062H118.795C120.162 5.66016 121.285 6.05078 122.164 6.8125C123.062 7.55469 123.697 8.4043 124.068 9.36133C124.459 10.2988 124.654 11.2754 124.654 12.291C124.654 13.2676 124.459 14.2344 124.068 15.1914C123.678 16.1289 123.043 16.9785 122.164 17.7402C121.285 18.4824 119.986 18.8828 118.268 18.9414H109.83ZM109.186 9.56641C108.814 9.56641 108.492 9.72266 108.219 10.0352C107.945 10.3281 107.74 10.6797 107.604 11.0898C107.486 11.4805 107.428 11.8711 107.428 12.2617C107.428 12.6719 107.486 13.082 107.604 13.4922C107.74 13.8828 107.945 14.2344 108.219 14.5469C108.492 14.8398 108.814 14.9961 109.186 15.0156H118.912C119.283 14.9961 119.605 14.8398 119.879 14.5469C120.152 14.2344 120.348 13.8828 120.465 13.4922C120.602 13.082 120.67 12.6719 120.67 12.2617C120.67 11.8711 120.602 11.4805 120.465 11.0898C120.348 10.6797 120.152 10.3281 119.879 10.0352C119.605 9.72266 119.283 9.56641 118.912 9.56641H109.186ZM136.666 17.125C135.162 18.2578 133.707 18.8633 132.301 18.9414H129.254C128.727 18.9219 128.277 18.7363 127.906 18.3848C127.555 18.0137 127.369 17.5645 127.35 17.0371C127.35 16.4902 127.525 16.0215 127.877 15.6309C128.248 15.2402 128.707 15.0352 129.254 15.0156H132.008C132.75 14.9766 133.521 14.6934 134.322 14.166C135.123 13.6387 135.787 13.0332 136.314 12.3496C136.373 12.291 136.432 12.2227 136.49 12.1445C135.963 11.5 135.318 10.9238 134.557 10.416C133.756 9.88867 132.984 9.60547 132.242 9.56641H129.488C128.941 9.54688 128.482 9.3418 128.111 8.95117C127.76 8.56055 127.584 8.0918 127.584 7.54492C127.604 7.01758 127.789 6.57812 128.141 6.22656C128.512 5.85547 128.961 5.66016 129.488 5.64062H132.535C133.941 5.71875 135.396 6.32422 136.9 7.45703C137.545 7.94531 138.15 8.50195 138.717 9.12695C139.283 8.50195 139.898 7.94531 140.562 7.45703C142.047 6.32422 143.492 5.71875 144.898 5.64062H147.945C148.473 5.66016 148.912 5.85547 149.264 6.22656C149.635 6.57812 149.83 7.01758 149.85 7.54492C149.85 8.0918 149.664 8.56055 149.293 8.95117C148.941 9.3418 148.492 9.54688 147.945 9.56641H145.191C144.449 9.60547 143.678 9.88867 142.877 10.416C142.115 10.9238 141.471 11.5 140.943 12.1445C141.002 12.2227 141.061 12.291 141.119 12.3496C141.646 13.0332 142.311 13.6387 143.111 14.166C143.912 14.6934 144.684 14.9766 145.426 15.0156H148.18C148.727 15.0352 149.176 15.2402 149.527 15.6309C149.898 16.0215 150.084 16.4902 150.084 17.0371C150.064 17.5645 149.869 18.0137 149.498 18.3848C149.146 18.7363 148.707 18.9219 148.18 18.9414H145.133C143.727 18.8633 142.281 18.2578 140.797 17.125C140.035 16.5391 139.342 15.9043 138.717 15.2207C138.092 15.9043 137.408 16.5391 136.666 17.125Z" fill="white"/>
<path d="M73.9414 8.01367C73.1602 8.01367 72.5059 7.74023 71.9785 7.19336C71.4707 6.64648 71.2168 5.97266 71.2168 5.17188C71.2168 4.35156 71.4707 3.66797 71.9785 3.12109C72.5059 2.57422 73.1602 2.30078 73.9414 2.30078C74.7422 2.30078 75.3965 2.57422 75.9043 3.12109C76.4316 3.66797 76.6953 4.35156 76.6953 5.17188C76.6953 5.99219 76.4316 6.67578 75.9043 7.22266C75.377 7.75 74.7227 8.01367 73.9414 8.01367ZM73.9414 19.4102C73.1602 19.4102 72.5059 19.1367 71.9785 18.5898C71.4707 18.043 71.2168 17.3594 71.2168 16.5391C71.2168 15.7188 71.4707 15.0352 71.9785 14.4883C72.5059 13.9414 73.1602 13.668 73.9414 13.668C74.7227 13.668 75.377 13.9414 75.9043 14.4883C76.4316 15.0352 76.6953 15.7188 76.6953 16.5391C76.6953 17.3594 76.4316 18.043 75.9043 18.5898C75.377 19.1367 74.7227 19.4102 73.9414 19.4102ZM100.191 11.207C100.562 11.9883 100.748 12.7793 100.748 13.5801C100.748 14.3613 100.553 15.1426 100.162 15.9238C99.7715 16.6855 99.1367 17.3691 98.2578 17.9746C97.3789 18.5605 96.2559 18.8535 94.8887 18.8535H94.7129C94.5957 18.873 94.4785 18.8828 94.3613 18.8828H82.584C82.0566 18.8633 81.6074 18.6777 81.2363 18.3262C80.8848 17.9551 80.6992 17.5059 80.6797 16.9785V3.56055C80.6992 3.0332 80.8848 2.59375 81.2363 2.24219C81.6074 1.87109 82.0566 1.67578 82.584 1.65625H92.6621C92.7793 1.65625 92.8965 1.66602 93.0137 1.68555H93.1895C94.5566 1.72461 95.6797 2.03711 96.5586 2.62305C97.4375 3.20898 98.0723 3.88281 98.4629 4.64453C98.8535 5.38672 99.0488 6.13867 99.0488 6.90039C99.0488 7.68164 98.8633 8.44336 98.4922 9.18555C98.4727 9.22461 98.4531 9.25391 98.4336 9.27344C99.2344 9.83984 99.8203 10.4844 100.191 11.207ZM95.0645 14.957C95.4355 14.9766 95.7383 14.9082 95.9727 14.752C96.2266 14.5957 96.4121 14.4199 96.5293 14.2246C96.6465 14.0098 96.7051 13.7949 96.7051 13.5801C96.7051 13.4434 96.6465 13.2578 96.5293 13.0234C96.4121 12.7695 96.2266 12.5645 95.9727 12.4082C95.7383 12.252 95.4355 12.1641 95.0645 12.1445H93.1895H84.6348V14.166C84.6348 14.6934 84.9082 14.957 85.4551 14.957H85.6895H95.0645ZM94.3027 7.95508C94.5371 7.81836 94.7129 7.66211 94.8301 7.48633C94.9473 7.29102 95.0059 7.0957 95.0059 6.90039C95.0059 6.70508 94.9473 6.51953 94.8301 6.34375C94.7129 6.14844 94.5273 5.98242 94.2734 5.8457C94.0391 5.68945 93.7363 5.60156 93.3652 5.58203H85.4551C84.9082 5.58203 84.6348 5.8457 84.6348 6.37305V8.21875H93.3652C93.7363 8.19922 94.0488 8.11133 94.3027 7.95508Z" fill="#FF3187"/>
</svg>
