<svg width="1512" height="1282" viewBox="0 0 1512 1282" fill="none" xmlns="http://www.w3.org/2000/svg">
<mask id="mask0_602_85" style="mask-type:alpha" maskUnits="userSpaceOnUse" x="0" y="0" width="1512" height="1282">
<rect width="1512" height="1282" fill="black"/>
</mask>
<g mask="url(#mask0_602_85)">
<mask id="mask1_602_85" style="mask-type:alpha" maskUnits="userSpaceOnUse" x="-1" y="443" width="1512" height="1003">
<rect x="-1" y="443" width="1512" height="1003" fill="black"/>
</mask>
<g mask="url(#mask1_602_85)">
<g filter="url(#filter0_f_602_85)">
<path d="M646.66 1177.8C644.771 1201.32 638.365 1222.53 627.444 1241.45C616.788 1259.91 601.519 1275.7 581.636 1288.83C562.019 1301.49 537.7 1308.98 508.68 1311.3C479.926 1313.15 449.4 1304.76 417.103 1286.11L412.95 1283.71C409.916 1282.58 407.014 1281.21 404.246 1279.61L126.027 1118.98C113.836 1111.33 105.755 1100.82 101.783 1087.45C98.5393 1073.89 100.283 1060.75 107.014 1048.02L290.02 731.049C297.674 718.857 308.05 711.007 321.15 707.497C334.978 703.792 348.254 705.304 360.978 712.035L599.055 849.49C601.824 851.088 604.459 852.917 606.961 854.977L611.113 857.374C642.878 876.944 665.146 899.643 677.917 925.472C690.688 951.301 696.493 975.876 695.332 999.198C694.437 1022.06 688.795 1042.49 678.406 1060.48C667.751 1078.94 652.978 1094.4 634.089 1106.87C633.095 1107.53 632.234 1107.95 631.506 1108.15C642.698 1132.45 647.749 1155.67 646.66 1177.8ZM474.399 1196.46C482.899 1201.98 490.983 1204.5 498.651 1204C506.78 1203.78 513.56 1202.15 518.993 1199.14C524.691 1195.66 529.006 1191.39 531.936 1186.31C533.8 1183.08 534.947 1177.9 535.375 1170.76C536.07 1163.17 534.484 1155.79 530.617 1148.64C527.211 1141.75 521.258 1135.54 512.758 1130.02L468.465 1104.45L266.376 987.772L238.805 1035.53C231.612 1047.98 234.476 1057.94 247.395 1065.4L252.931 1068.6L474.399 1196.46ZM551.903 1020.66C559.305 1020.63 565.588 1019.34 570.754 1016.78C576.186 1013.77 580.234 1009.95 582.898 1005.34C585.562 1000.73 586.708 995.543 586.338 989.792C586.233 983.58 584.114 977.127 579.981 970.435C576.575 963.547 570.622 957.342 562.122 951.819L375.259 843.933C362.34 836.475 352.284 838.974 345.092 851.432L319.919 895.033L526.16 1014.11C535.193 1018.71 543.774 1020.89 551.903 1020.66Z" fill="#FF3187" fill-opacity="0.3"/>
<path d="M70.1039 744.343C51.6483 733.688 39.9211 718.304 34.9223 698.193C30.3849 678.348 33.577 658.967 44.4988 640.05C55.6869 620.672 71.0084 607.986 90.4633 601.993C110.38 596.267 129.566 598.731 148.021 609.386C166.938 620.308 178.665 635.691 183.203 655.536C188.202 675.648 185.107 695.393 173.919 714.771C162.731 734.149 147.179 746.702 127.262 752.428C107.612 757.694 88.5595 754.999 70.1039 744.343ZM-85.3312 1013.56C-103.787 1002.91 -115.514 987.526 -120.513 967.415C-125.05 947.57 -121.725 927.958 -110.537 908.58C-99.3486 889.201 -84.0271 876.515 -64.5722 870.523C-44.6559 864.796 -25.4699 867.26 -7.01427 877.916C11.4414 888.571 23.1686 903.954 28.1674 924.066C33.1662 944.177 30.0715 963.922 18.8834 983.3C7.69523 1002.68 -7.85698 1015.23 -27.7733 1020.96C-47.6896 1026.68 -66.8755 1024.22 -85.3312 1013.56Z" fill="#FF3187" fill-opacity="0.3"/>
</g>
</g>
</g>
<defs>
<filter id="filter0_f_602_85" x="-232.477" y="488.99" width="1037.95" height="932.562" filterUnits="userSpaceOnUse" color-interpolation-filters="sRGB">
<feFlood flood-opacity="0" result="BackgroundImageFix"/>
<feBlend mode="normal" in="SourceGraphic" in2="BackgroundImageFix" result="shape"/>
<feGaussianBlur stdDeviation="55" result="effect1_foregroundBlur_602_85"/>
</filter>
</defs>
</svg>
