<svg width="80" height="49" viewBox="0 0 80 49" fill="none" xmlns="http://www.w3.org/2000/svg">
<path d="M8.17969 17.7031C6.09635 17.7031 4.35156 16.974 2.94531 15.5156C1.59115 14.0573 0.914062 12.2604 0.914062 10.125C0.914062 7.9375 1.59115 6.11458 2.94531 4.65625C4.35156 3.19792 6.09635 2.46875 8.17969 2.46875C10.3151 2.46875 12.0599 3.19792 13.4141 4.65625C14.8203 6.11458 15.5234 7.9375 15.5234 10.125C15.5234 12.3125 14.8203 14.1354 13.4141 15.5938C12.0078 17 10.263 17.7031 8.17969 17.7031ZM8.17969 48.0938C6.09635 48.0938 4.35156 47.3646 2.94531 45.9062C1.59115 44.4479 0.914062 42.625 0.914062 40.4375C0.914062 38.25 1.59115 36.4271 2.94531 34.9688C4.35156 33.5104 6.09635 32.7812 8.17969 32.7812C10.263 32.7812 12.0078 33.5104 13.4141 34.9688C14.8203 36.4271 15.5234 38.25 15.5234 40.4375C15.5234 42.625 14.8203 44.4479 13.4141 45.9062C12.0078 47.3646 10.263 48.0938 8.17969 48.0938ZM78.1797 26.2188C79.1693 28.3021 79.6641 30.4115 79.6641 32.5469C79.6641 34.6302 79.1432 36.7135 78.1016 38.7969C77.0599 40.8281 75.3672 42.651 73.0234 44.2656C70.6797 45.8281 67.6849 46.6094 64.0391 46.6094H63.5703C63.2578 46.6615 62.9453 46.6875 62.6328 46.6875H31.2266C29.8203 46.6354 28.6224 46.1406 27.6328 45.2031C26.6953 44.2135 26.2005 43.0156 26.1484 41.6094V5.82812C26.2005 4.42188 26.6953 3.25 27.6328 2.3125C28.6224 1.32292 29.8203 0.802083 31.2266 0.75H58.1016C58.4141 0.75 58.7266 0.776042 59.0391 0.828125H59.5078C63.1536 0.932292 66.1484 1.76562 68.4922 3.32812C70.8359 4.89062 72.5286 6.6875 73.5703 8.71875C74.612 10.6979 75.1328 12.7031 75.1328 14.7344C75.1328 16.8177 74.638 18.849 73.6484 20.8281C73.5964 20.9323 73.5443 21.0104 73.4922 21.0625C75.6276 22.5729 77.1901 24.2917 78.1797 26.2188ZM64.5078 36.2188C65.4974 36.2708 66.3047 36.0885 66.9297 35.6719C67.6068 35.2552 68.1016 34.7865 68.4141 34.2656C68.7266 33.6927 68.8828 33.1198 68.8828 32.5469C68.8828 32.1823 68.7266 31.6875 68.4141 31.0625C68.1016 30.3854 67.6068 29.8385 66.9297 29.4219C66.3047 29.0052 65.4974 28.7708 64.5078 28.7188H59.5078H36.6953V34.1094C36.6953 35.5156 37.4245 36.2188 38.8828 36.2188H39.5078H64.5078ZM62.4766 17.5469C63.1016 17.1823 63.5703 16.7656 63.8828 16.2969C64.1953 15.776 64.3516 15.2552 64.3516 14.7344C64.3516 14.2135 64.1953 13.7188 63.8828 13.25C63.5703 12.7292 63.0755 12.2865 62.3984 11.9219C61.7734 11.5052 60.9661 11.2708 59.9766 11.2188H38.8828C37.4245 11.2188 36.6953 11.9219 36.6953 13.3281V18.25H59.9766C60.9661 18.1979 61.7995 17.9635 62.4766 17.5469Z" fill="#FF3187"/>
</svg>
