<svg width="104" height="104" viewBox="0 0 104 104" fill="none" xmlns="http://www.w3.org/2000/svg">
<path d="M41.1666 71.5L71.5 52L41.1666 32.5V71.5ZM52 95.3334C46.0055 95.3334 40.3722 94.1958 35.1 91.9208C29.8277 89.6459 25.2416 86.5583 21.3416 82.6583C17.4416 78.7583 14.3541 74.1722 12.0791 68.9C9.80413 63.6278 8.66663 57.9945 8.66663 52C8.66663 46.0056 9.80413 40.3722 12.0791 35.1C14.3541 29.8278 17.4416 25.2417 21.3416 21.3417C25.2416 17.4417 29.8277 14.3542 35.1 12.0792C40.3722 9.80419 46.0055 8.66669 52 8.66669C57.9944 8.66669 63.6277 9.80419 68.9 12.0792C74.1722 14.3542 78.7583 17.4417 82.6583 21.3417C86.5583 25.2417 89.6458 29.8278 91.9208 35.1C94.1958 40.3722 95.3333 46.0056 95.3333 52C95.3333 57.9945 94.1958 63.6278 91.9208 68.9C89.6458 74.1722 86.5583 78.7583 82.6583 82.6583C78.7583 86.5583 74.1722 89.6459 68.9 91.9208C63.6277 94.1958 57.9944 95.3334 52 95.3334ZM52 86.6667C61.6777 86.6667 69.875 83.3083 76.5916 76.5917C83.3083 69.875 86.6666 61.6778 86.6666 52C86.6666 42.3222 83.3083 34.125 76.5916 27.4084C69.875 20.6917 61.6777 17.3334 52 17.3334C42.3222 17.3334 34.125 20.6917 27.4083 27.4084C20.6916 34.125 17.3333 42.3222 17.3333 52C17.3333 61.6778 20.6916 69.875 27.4083 76.5917C34.125 83.3083 42.3222 86.6667 52 86.6667Z" fill="white"/>
</svg>
